<mxfile host="Electron" agent="Mozilla/5.0 (Windows NT 10.0; Win64; x64) AppleWebKit/537.36 (KHTML, like Gecko) draw.io/28.0.6 Chrome/138.0.7204.100 Electron/37.2.3 Safari/537.36" version="28.0.6">
  <diagram name="Page-1" id="q2N97K03fGu_8hDbX-mZ">
    <mxGraphModel dx="1055" dy="831" grid="1" gridSize="10" guides="1" tooltips="1" connect="1" arrows="1" fold="1" page="1" pageScale="1" pageWidth="827" pageHeight="1169" math="0" shadow="0">
      <root>
        <mxCell id="0" />
        <mxCell id="1" parent="0" />
        <mxCell id="Zg_yZ-KcbtZBnX7tjjq3-1" value="Azure Data Factory" style="rounded=0;whiteSpace=wrap;html=1;" vertex="1" parent="1">
          <mxGeometry x="80" y="160" width="80" height="80" as="geometry" />
        </mxCell>
        <mxCell id="Zg_yZ-KcbtZBnX7tjjq3-2" value="" style="endArrow=classic;html=1;rounded=0;exitX=1;exitY=0.5;exitDx=0;exitDy=0;" edge="1" parent="1" source="Zg_yZ-KcbtZBnX7tjjq3-1">
          <mxGeometry width="50" height="50" relative="1" as="geometry">
            <mxPoint x="280" y="340" as="sourcePoint" />
            <mxPoint x="640" y="200" as="targetPoint" />
          </mxGeometry>
        </mxCell>
        <mxCell id="Zg_yZ-KcbtZBnX7tjjq3-3" value="ADF Orchestration (Daily)" style="edgeLabel;html=1;align=center;verticalAlign=middle;resizable=0;points=[];" vertex="1" connectable="0" parent="Zg_yZ-KcbtZBnX7tjjq3-2">
          <mxGeometry x="-0.0912" y="2" relative="1" as="geometry">
            <mxPoint y="-8" as="offset" />
          </mxGeometry>
        </mxCell>
        <mxCell id="Zg_yZ-KcbtZBnX7tjjq3-4" value="" style="endArrow=classic;html=1;rounded=0;entryX=0.5;entryY=0;entryDx=0;entryDy=0;" edge="1" parent="1" target="Zg_yZ-KcbtZBnX7tjjq3-7">
          <mxGeometry width="50" height="50" relative="1" as="geometry">
            <mxPoint x="240" y="200" as="sourcePoint" />
            <mxPoint x="240" y="320" as="targetPoint" />
          </mxGeometry>
        </mxCell>
        <mxCell id="Zg_yZ-KcbtZBnX7tjjq3-6" value="Ingestion" style="edgeLabel;html=1;align=center;verticalAlign=middle;resizable=0;points=[];rotation=-90;" vertex="1" connectable="0" parent="Zg_yZ-KcbtZBnX7tjjq3-4">
          <mxGeometry x="-0.1563" y="-1" relative="1" as="geometry">
            <mxPoint x="-9" y="10" as="offset" />
          </mxGeometry>
        </mxCell>
        <mxCell id="Zg_yZ-KcbtZBnX7tjjq3-9" value="" style="edgeStyle=orthogonalEdgeStyle;rounded=0;orthogonalLoop=1;jettySize=auto;html=1;entryX=0.5;entryY=0;entryDx=0;entryDy=0;" edge="1" parent="1" source="Zg_yZ-KcbtZBnX7tjjq3-7" target="Zg_yZ-KcbtZBnX7tjjq3-8">
          <mxGeometry relative="1" as="geometry" />
        </mxCell>
        <mxCell id="Zg_yZ-KcbtZBnX7tjjq3-7" value="Ensure there is an agreed encryption method for transit/rest." style="rounded=0;whiteSpace=wrap;html=1;dashed=1;" vertex="1" parent="1">
          <mxGeometry x="200" y="320" width="80" height="80" as="geometry" />
        </mxCell>
        <mxCell id="Zg_yZ-KcbtZBnX7tjjq3-13" value="" style="edgeStyle=orthogonalEdgeStyle;rounded=0;orthogonalLoop=1;jettySize=auto;html=1;" edge="1" parent="1" source="Zg_yZ-KcbtZBnX7tjjq3-8" target="Zg_yZ-KcbtZBnX7tjjq3-12">
          <mxGeometry relative="1" as="geometry" />
        </mxCell>
        <mxCell id="Zg_yZ-KcbtZBnX7tjjq3-8" value="Pull CSV from SFTP location at 05:00 UTC" style="rounded=0;whiteSpace=wrap;html=1;" vertex="1" parent="1">
          <mxGeometry x="200" y="440" width="80" height="80" as="geometry" />
        </mxCell>
        <mxCell id="Zg_yZ-KcbtZBnX7tjjq3-12" value="Decrypt, Validate, Archive" style="rounded=0;whiteSpace=wrap;html=1;" vertex="1" parent="1">
          <mxGeometry x="200" y="560" width="80" height="80" as="geometry" />
        </mxCell>
        <mxCell id="Zg_yZ-KcbtZBnX7tjjq3-14" value="" style="endArrow=classic;html=1;rounded=0;entryX=0.5;entryY=0;entryDx=0;entryDy=0;" edge="1" parent="1" target="Zg_yZ-KcbtZBnX7tjjq3-16">
          <mxGeometry width="50" height="50" relative="1" as="geometry">
            <mxPoint x="400" y="200" as="sourcePoint" />
            <mxPoint x="400" y="320" as="targetPoint" />
          </mxGeometry>
        </mxCell>
        <mxCell id="Zg_yZ-KcbtZBnX7tjjq3-15" value="Transformation" style="edgeLabel;html=1;align=center;verticalAlign=middle;resizable=0;points=[];rotation=-90;" vertex="1" connectable="0" parent="Zg_yZ-KcbtZBnX7tjjq3-14">
          <mxGeometry x="-0.0529" y="-2" relative="1" as="geometry">
            <mxPoint x="-8" y="3" as="offset" />
          </mxGeometry>
        </mxCell>
        <mxCell id="Zg_yZ-KcbtZBnX7tjjq3-20" value="" style="edgeStyle=orthogonalEdgeStyle;rounded=0;orthogonalLoop=1;jettySize=auto;html=1;" edge="1" parent="1" source="Zg_yZ-KcbtZBnX7tjjq3-16" target="Zg_yZ-KcbtZBnX7tjjq3-19">
          <mxGeometry relative="1" as="geometry" />
        </mxCell>
        <mxCell id="Zg_yZ-KcbtZBnX7tjjq3-16" value="Instantiate CSV with agreed delimiter, multi-line, etc." style="rounded=0;whiteSpace=wrap;html=1;" vertex="1" parent="1">
          <mxGeometry x="360" y="320" width="80" height="80" as="geometry" />
        </mxCell>
        <mxCell id="Zg_yZ-KcbtZBnX7tjjq3-17" value="" style="endArrow=classic;html=1;rounded=0;exitX=0.5;exitY=1;exitDx=0;exitDy=0;entryX=0;entryY=0.5;entryDx=0;entryDy=0;dashed=1;" edge="1" parent="1" source="Zg_yZ-KcbtZBnX7tjjq3-12" target="Zg_yZ-KcbtZBnX7tjjq3-16">
          <mxGeometry width="50" height="50" relative="1" as="geometry">
            <mxPoint x="320" y="470" as="sourcePoint" />
            <mxPoint x="370" y="420" as="targetPoint" />
            <Array as="points">
              <mxPoint x="240" y="680" />
              <mxPoint x="320" y="680" />
              <mxPoint x="320" y="360" />
            </Array>
          </mxGeometry>
        </mxCell>
        <mxCell id="Zg_yZ-KcbtZBnX7tjjq3-18" value="If Successful" style="edgeLabel;html=1;align=center;verticalAlign=middle;resizable=0;points=[];rotation=-90;" vertex="1" connectable="0" parent="Zg_yZ-KcbtZBnX7tjjq3-17">
          <mxGeometry x="0.1253" y="-3" relative="1" as="geometry">
            <mxPoint x="-13" as="offset" />
          </mxGeometry>
        </mxCell>
        <mxCell id="Zg_yZ-KcbtZBnX7tjjq3-24" value="" style="edgeStyle=orthogonalEdgeStyle;rounded=0;orthogonalLoop=1;jettySize=auto;html=1;dashed=1;" edge="1" parent="1" source="Zg_yZ-KcbtZBnX7tjjq3-19" target="Zg_yZ-KcbtZBnX7tjjq3-23">
          <mxGeometry relative="1" as="geometry" />
        </mxCell>
        <mxCell id="Zg_yZ-KcbtZBnX7tjjq3-19" value="Data Cleansing&lt;div&gt;(Python Notebook, Databricks)&lt;/div&gt;" style="rounded=0;whiteSpace=wrap;html=1;" vertex="1" parent="1">
          <mxGeometry x="360" y="440" width="80" height="80" as="geometry" />
        </mxCell>
        <mxCell id="Zg_yZ-KcbtZBnX7tjjq3-23" value="Produce intermediary file (Parquet, if necessary, etc)" style="rounded=0;whiteSpace=wrap;html=1;dashed=1;" vertex="1" parent="1">
          <mxGeometry x="360" y="560" width="80" height="80" as="geometry" />
        </mxCell>
        <mxCell id="Zg_yZ-KcbtZBnX7tjjq3-25" value="" style="endArrow=classic;html=1;rounded=0;entryX=0.5;entryY=0;entryDx=0;entryDy=0;" edge="1" parent="1" target="Zg_yZ-KcbtZBnX7tjjq3-27">
          <mxGeometry width="50" height="50" relative="1" as="geometry">
            <mxPoint x="560" y="200" as="sourcePoint" />
            <mxPoint x="560" y="320" as="targetPoint" />
          </mxGeometry>
        </mxCell>
        <mxCell id="Zg_yZ-KcbtZBnX7tjjq3-26" value="Loading (Bronze)" style="edgeLabel;html=1;align=center;verticalAlign=middle;resizable=0;points=[];rotation=-90;" vertex="1" connectable="0" parent="Zg_yZ-KcbtZBnX7tjjq3-25">
          <mxGeometry x="-0.0529" y="-2" relative="1" as="geometry">
            <mxPoint x="-8" y="3" as="offset" />
          </mxGeometry>
        </mxCell>
        <mxCell id="Zg_yZ-KcbtZBnX7tjjq3-31" value="" style="edgeStyle=orthogonalEdgeStyle;rounded=0;orthogonalLoop=1;jettySize=auto;html=1;" edge="1" parent="1" source="Zg_yZ-KcbtZBnX7tjjq3-27" target="Zg_yZ-KcbtZBnX7tjjq3-30">
          <mxGeometry relative="1" as="geometry" />
        </mxCell>
        <mxCell id="Zg_yZ-KcbtZBnX7tjjq3-27" value="Perform an upsert on the data produced. (Bronze)" style="rounded=0;whiteSpace=wrap;html=1;fillColor=#ffe6cc;strokeColor=#d79b00;" vertex="1" parent="1">
          <mxGeometry x="520" y="320" width="80" height="80" as="geometry" />
        </mxCell>
        <mxCell id="Zg_yZ-KcbtZBnX7tjjq3-28" value="" style="endArrow=classic;html=1;rounded=0;entryX=0;entryY=0.5;entryDx=0;entryDy=0;dashed=1;exitX=0.5;exitY=1;exitDx=0;exitDy=0;" edge="1" parent="1" source="Zg_yZ-KcbtZBnX7tjjq3-23" target="Zg_yZ-KcbtZBnX7tjjq3-27">
          <mxGeometry width="50" height="50" relative="1" as="geometry">
            <mxPoint x="400" y="640" as="sourcePoint" />
            <mxPoint x="520" y="360" as="targetPoint" />
            <Array as="points">
              <mxPoint x="400" y="680" />
              <mxPoint x="480" y="680" />
              <mxPoint x="480" y="360" />
            </Array>
          </mxGeometry>
        </mxCell>
        <mxCell id="Zg_yZ-KcbtZBnX7tjjq3-29" value="If Successful" style="edgeLabel;html=1;align=center;verticalAlign=middle;resizable=0;points=[];rotation=-90;" vertex="1" connectable="0" parent="Zg_yZ-KcbtZBnX7tjjq3-28">
          <mxGeometry x="0.1253" y="-3" relative="1" as="geometry">
            <mxPoint x="-13" as="offset" />
          </mxGeometry>
        </mxCell>
        <mxCell id="Zg_yZ-KcbtZBnX7tjjq3-30" value="Log appropriately." style="rounded=0;whiteSpace=wrap;html=1;" vertex="1" parent="1">
          <mxGeometry x="520" y="440" width="80" height="80" as="geometry" />
        </mxCell>
      </root>
    </mxGraphModel>
  </diagram>
</mxfile>
